<svg xmlns="http://www.w3.org/2000/svg" version="1.1" xmlns:xlink="http://www.w3.org/1999/xlink" xmlns:svgjs="http://svgjs.dev/svgjs" width="1440" height="560" preserveAspectRatio="none" viewBox="0 0 1440 560"><g mask="url(&quot;#SvgjsMask1893&quot;)" fill="none"><use xlink:href="#SvgjsG1897" transform="translate(0, 0)" fill="#0f457b"></use><use xlink:href="#SvgjsG1897" transform="translate(0, 320)" fill="#0f457b"></use><use xlink:href="#SvgjsG1897" transform="translate(320, 0)" fill="#0f457b"></use><use xlink:href="#SvgjsG1897" transform="translate(320, 320)" fill="#0f457b"></use><use xlink:href="#SvgjsG1897" transform="translate(640, 0)" fill="#0f457b"></use><use xlink:href="#SvgjsG1897" transform="translate(640, 320)" fill="#0f457b"></use><use xlink:href="#SvgjsG1897" transform="translate(960, 0)" fill="#0f457b"></use><use xlink:href="#SvgjsG1897" transform="translate(960, 320)" fill="#0f457b"></use><use xlink:href="#SvgjsG1897" transform="translate(1280, 0)" fill="#0f457b"></use><use xlink:href="#SvgjsG1897" transform="translate(1280, 320)" fill="#0f457b"></use></g><defs><mask id="SvgjsMask1893"><rect width="1440" height="560" fill="#ffffff"></rect></mask><g id="SvgjsG1895"><path d="M14.69 4.62C16.75 8.34 15.4 13.05 11.68 15.11 7.95 17.17 3.25 15.83 1.19 12.1S0.47 3.68 4.19 1.61c3.72-2.06 8.43-0.71 10.5 3.01z m-1.67 0.93c-1.55-2.8-5.09-3.82-7.9-2.27-2.8 1.55-3.81 5.1-2.26 7.9 1.55 2.8 5.1 3.81 7.89 2.26 2.8-1.55 3.82-5.09 2.27-7.89z"></path><path d="M8.81 7.83a0.57 0.57 0 0 1 0.23 0.51 0.58 0.58 0 0 1-0.22 0.42L4.9 10.94a0.58 0.58 0 0 1-0.56-1.02l3.04-1.68-2.67-1.92a0.58 0.58 0 0 1-0.13-0.81c0.19-0.26 0.55-0.32 0.81-0.14l3.42 2.46z"></path></g><g id="SvgjsG1894"><path d="M4.35 17.91l0.28-15.93 13.66 8.21L4.35 17.92z" fill-rule="evenodd"></path></g><g id="SvgjsG1896"><path d="M5.71 15.98l-5.69-10.27 10.27-5.69L15.98 10.29z"></path></g><g id="SvgjsG1897"><use xlink:href="#SvgjsG1894" transform="translate(0, 0) scale(0.5)" fill="#0f457b"></use><use xlink:href="#SvgjsG1895" transform="translate(0, 32) scale(0.5)" fill="#0f457b"></use><use xlink:href="#SvgjsG1895" transform="translate(0, 64) scale(0.5)" fill="#0f457b"></use><use xlink:href="#SvgjsG1894" transform="translate(0, 96) scale(0.5)" fill="#0f457b"></use><use xlink:href="#SvgjsG1896" transform="translate(0, 128) scale(0.5)" fill="#0f457b"></use><use xlink:href="#SvgjsG1895" transform="translate(0, 160) scale(0.5)" fill="#0f457b"></use><use xlink:href="#SvgjsG1895" transform="translate(0, 192) scale(0.5)" fill="#0f457b"></use><use xlink:href="#SvgjsG1894" transform="translate(0, 224) scale(0.5)" fill="#0f457b"></use><use xlink:href="#SvgjsG1896" transform="translate(0, 256) scale(0.5)" fill="#0f457b"></use><use xlink:href="#SvgjsG1896" transform="translate(0, 288) scale(0.5)" fill="#0f457b"></use><use xlink:href="#SvgjsG1895" transform="translate(32, 0) scale(0.5)" fill="#0f457b"></use><use xlink:href="#SvgjsG1896" transform="translate(32, 32) scale(0.5)" fill="#0f457b"></use><use xlink:href="#SvgjsG1894" transform="translate(32, 64) scale(0.5)" fill="#0f457b"></use><use xlink:href="#SvgjsG1894" transform="translate(32, 96) scale(0.5)" fill="#0f457b"></use><use xlink:href="#SvgjsG1894" transform="translate(32, 128) scale(0.5)" fill="#0f457b"></use><use xlink:href="#SvgjsG1894" transform="translate(32, 160) scale(0.5)" fill="#0f457b"></use><use xlink:href="#SvgjsG1896" transform="translate(32, 192) scale(0.5)" fill="#0f457b"></use><use xlink:href="#SvgjsG1896" transform="translate(32, 224) scale(0.5)" fill="#0f457b"></use><use xlink:href="#SvgjsG1896" transform="translate(32, 256) scale(0.5)" fill="#0f457b"></use><use xlink:href="#SvgjsG1895" transform="translate(32, 288) scale(0.5)" fill="#0f457b"></use><use xlink:href="#SvgjsG1895" transform="translate(64, 0) scale(0.5)" fill="#0f457b"></use><use xlink:href="#SvgjsG1895" transform="translate(64, 32) scale(0.5)" fill="#0f457b"></use><use xlink:href="#SvgjsG1896" transform="translate(64, 64) scale(0.5)" fill="#0f457b"></use><use xlink:href="#SvgjsG1894" transform="translate(64, 96) scale(0.5)" fill="#0f457b"></use><use xlink:href="#SvgjsG1894" transform="translate(64, 128) scale(0.5)" fill="#0f457b"></use><use xlink:href="#SvgjsG1896" transform="translate(64, 160) scale(0.5)" fill="#0f457b"></use><use xlink:href="#SvgjsG1895" transform="translate(64, 192) scale(0.5)" fill="#0f457b"></use><use xlink:href="#SvgjsG1896" transform="translate(64, 224) scale(0.5)" fill="#0f457b"></use><use xlink:href="#SvgjsG1894" transform="translate(64, 256) scale(0.5)" fill="#0f457b"></use><use xlink:href="#SvgjsG1894" transform="translate(64, 288) scale(0.5)" fill="#0f457b"></use><use xlink:href="#SvgjsG1894" transform="translate(96, 0) scale(0.5)" fill="#0f457b"></use><use xlink:href="#SvgjsG1895" transform="translate(96, 32) scale(0.5)" fill="#0f457b"></use><use xlink:href="#SvgjsG1896" transform="translate(96, 64) scale(0.5)" fill="#0f457b"></use><use xlink:href="#SvgjsG1895" transform="translate(96, 96) scale(0.5)" fill="#0f457b"></use><use xlink:href="#SvgjsG1895" transform="translate(96, 128) scale(0.5)" fill="#0f457b"></use><use xlink:href="#SvgjsG1896" transform="translate(96, 160) scale(0.5)" fill="#0f457b"></use><use xlink:href="#SvgjsG1895" transform="translate(96, 192) scale(0.5)" fill="#0f457b"></use><use xlink:href="#SvgjsG1896" transform="translate(96, 224) scale(0.5)" fill="#0f457b"></use><use xlink:href="#SvgjsG1894" transform="translate(96, 256) scale(0.5)" fill="#0f457b"></use><use xlink:href="#SvgjsG1894" transform="translate(96, 288) scale(0.5)" fill="#0f457b"></use><use xlink:href="#SvgjsG1894" transform="translate(128, 0) scale(0.5)" fill="#0f457b"></use><use xlink:href="#SvgjsG1895" transform="translate(128, 32) scale(0.5)" fill="#0f457b"></use><use xlink:href="#SvgjsG1895" transform="translate(128, 64) scale(0.5)" fill="#0f457b"></use><use xlink:href="#SvgjsG1896" transform="translate(128, 96) scale(0.5)" fill="#0f457b"></use><use xlink:href="#SvgjsG1894" transform="translate(128, 128) scale(0.5)" fill="#0f457b"></use><use xlink:href="#SvgjsG1896" transform="translate(128, 160) scale(0.5)" fill="#0f457b"></use><use xlink:href="#SvgjsG1894" transform="translate(128, 192) scale(0.5)" fill="#0f457b"></use><use xlink:href="#SvgjsG1896" transform="translate(128, 224) scale(0.5)" fill="#0f457b"></use><use xlink:href="#SvgjsG1896" transform="translate(128, 256) scale(0.5)" fill="#0f457b"></use><use xlink:href="#SvgjsG1895" transform="translate(128, 288) scale(0.5)" fill="#0f457b"></use><use xlink:href="#SvgjsG1895" transform="translate(160, 0) scale(0.5)" fill="#0f457b"></use><use xlink:href="#SvgjsG1895" transform="translate(160, 32) scale(0.5)" fill="#0f457b"></use><use xlink:href="#SvgjsG1895" transform="translate(160, 64) scale(0.5)" fill="#0f457b"></use><use xlink:href="#SvgjsG1896" transform="translate(160, 96) scale(0.5)" fill="#0f457b"></use><use xlink:href="#SvgjsG1894" transform="translate(160, 128) scale(0.5)" fill="#0f457b"></use><use xlink:href="#SvgjsG1895" transform="translate(160, 160) scale(0.5)" fill="#0f457b"></use><use xlink:href="#SvgjsG1896" transform="translate(160, 192) scale(0.5)" fill="#0f457b"></use><use xlink:href="#SvgjsG1895" transform="translate(160, 224) scale(0.5)" fill="#0f457b"></use><use xlink:href="#SvgjsG1894" transform="translate(160, 256) scale(0.5)" fill="#0f457b"></use><use xlink:href="#SvgjsG1896" transform="translate(160, 288) scale(0.5)" fill="#0f457b"></use><use xlink:href="#SvgjsG1894" transform="translate(192, 0) scale(0.5)" fill="#0f457b"></use><use xlink:href="#SvgjsG1894" transform="translate(192, 32) scale(0.5)" fill="#0f457b"></use><use xlink:href="#SvgjsG1896" transform="translate(192, 64) scale(0.5)" fill="#0f457b"></use><use xlink:href="#SvgjsG1896" transform="translate(192, 96) scale(0.5)" fill="#0f457b"></use><use xlink:href="#SvgjsG1894" transform="translate(192, 128) scale(0.5)" fill="#0f457b"></use><use xlink:href="#SvgjsG1896" transform="translate(192, 160) scale(0.5)" fill="#0f457b"></use><use xlink:href="#SvgjsG1896" transform="translate(192, 192) scale(0.5)" fill="#0f457b"></use><use xlink:href="#SvgjsG1894" transform="translate(192, 224) scale(0.5)" fill="#0f457b"></use><use xlink:href="#SvgjsG1894" transform="translate(192, 256) scale(0.5)" fill="#0f457b"></use><use xlink:href="#SvgjsG1896" transform="translate(192, 288) scale(0.5)" fill="#0f457b"></use><use xlink:href="#SvgjsG1895" transform="translate(224, 0) scale(0.5)" fill="#0f457b"></use><use xlink:href="#SvgjsG1894" transform="translate(224, 32) scale(0.5)" fill="#0f457b"></use><use xlink:href="#SvgjsG1894" transform="translate(224, 64) scale(0.5)" fill="#0f457b"></use><use xlink:href="#SvgjsG1895" transform="translate(224, 96) scale(0.5)" fill="#0f457b"></use><use xlink:href="#SvgjsG1895" transform="translate(224, 128) scale(0.5)" fill="#0f457b"></use><use xlink:href="#SvgjsG1894" transform="translate(224, 160) scale(0.5)" fill="#0f457b"></use><use xlink:href="#SvgjsG1895" transform="translate(224, 192) scale(0.5)" fill="#0f457b"></use><use xlink:href="#SvgjsG1896" transform="translate(224, 224) scale(0.5)" fill="#0f457b"></use><use xlink:href="#SvgjsG1895" transform="translate(224, 256) scale(0.5)" fill="#0f457b"></use><use xlink:href="#SvgjsG1895" transform="translate(224, 288) scale(0.5)" fill="#0f457b"></use><use xlink:href="#SvgjsG1895" transform="translate(256, 0) scale(0.5)" fill="#0f457b"></use><use xlink:href="#SvgjsG1896" transform="translate(256, 32) scale(0.5)" fill="#0f457b"></use><use xlink:href="#SvgjsG1896" transform="translate(256, 64) scale(0.5)" fill="#0f457b"></use><use xlink:href="#SvgjsG1895" transform="translate(256, 96) scale(0.5)" fill="#0f457b"></use><use xlink:href="#SvgjsG1894" transform="translate(256, 128) scale(0.5)" fill="#0f457b"></use><use xlink:href="#SvgjsG1896" transform="translate(256, 160) scale(0.5)" fill="#0f457b"></use><use xlink:href="#SvgjsG1894" transform="translate(256, 192) scale(0.5)" fill="#0f457b"></use><use xlink:href="#SvgjsG1896" transform="translate(256, 224) scale(0.5)" fill="#0f457b"></use><use xlink:href="#SvgjsG1896" transform="translate(256, 256) scale(0.5)" fill="#0f457b"></use><use xlink:href="#SvgjsG1894" transform="translate(256, 288) scale(0.5)" fill="#0f457b"></use><use xlink:href="#SvgjsG1894" transform="translate(288, 0) scale(0.5)" fill="#0f457b"></use><use xlink:href="#SvgjsG1896" transform="translate(288, 32) scale(0.5)" fill="#0f457b"></use><use xlink:href="#SvgjsG1894" transform="translate(288, 64) scale(0.5)" fill="#0f457b"></use><use xlink:href="#SvgjsG1896" transform="translate(288, 96) scale(0.5)" fill="#0f457b"></use><use xlink:href="#SvgjsG1896" transform="translate(288, 128) scale(0.5)" fill="#0f457b"></use><use xlink:href="#SvgjsG1895" transform="translate(288, 160) scale(0.5)" fill="#0f457b"></use><use xlink:href="#SvgjsG1894" transform="translate(288, 192) scale(0.5)" fill="#0f457b"></use><use xlink:href="#SvgjsG1894" transform="translate(288, 224) scale(0.5)" fill="#0f457b"></use><use xlink:href="#SvgjsG1895" transform="translate(288, 256) scale(0.5)" fill="#0f457b"></use><use xlink:href="#SvgjsG1895" transform="translate(288, 288) scale(0.5)" fill="#0f457b"></use></g></defs></svg>