<svg xmlns="http://www.w3.org/2000/svg" version="1.1" xmlns:xlink="http://www.w3.org/1999/xlink" xmlns:svgjs="http://svgjs.dev/svgjs" width="1440" height="560" preserveAspectRatio="none" viewBox="0 0 1440 560"><g mask="url(&quot;#SvgjsMask1020&quot;)" fill="none"><path d="M-93.25 379.04L-93.25 379.04" stroke="rgba(19, 62, 101, 0.07)" stroke-width="1.5"></path><path d="M-93.25 379.04L54.93 400.57" stroke="rgba(19, 62, 101, 0.07)" stroke-width="1.5"></path><path d="M-93.25 379.04L-67.99 536.98" stroke="rgba(19, 62, 101, 0.07)" stroke-width="1.5"></path><path d="M-67.99 536.98L-67.99 536.98" stroke="rgba(19, 62, 101, 0.07)" stroke-width="1.5"></path><path d="M-67.99 536.98L42.87 522.23" stroke="rgba(19, 62, 101, 0.07)" stroke-width="1.5"></path><path d="M-67.99 536.98L-55.8 699.08" stroke="rgba(19, 62, 101, 0.07)" stroke-width="1.5"></path><path d="M-55.8 699.08L-55.8 699.08" stroke="rgba(19, 62, 101, 0.07)" stroke-width="1.5"></path><path d="M-55.8 699.08L58.57 641.38" stroke="rgba(19, 62, 101, 0.07)" stroke-width="1.5"></path><path d="M54.93 400.57L54.93 400.57" stroke="rgba(19, 62, 101, 0.07)" stroke-width="1.5"></path><path d="M54.93 400.57L42.87 522.23" stroke="rgba(19, 62, 101, 0.07)" stroke-width="1.5"></path><path d="M54.93 400.57L195.75 386.75" stroke="rgba(19, 62, 101, 0.07)" stroke-width="1.5"></path><path d="M54.93 400.57L188.14 503.58" stroke="rgba(19, 62, 101, 0.07)" stroke-width="1.5"></path><path d="M42.87 522.23L42.87 522.23" stroke="rgba(19, 62, 101, 0.07)" stroke-width="1.5"></path><path d="M42.87 522.23L58.57 641.38" stroke="rgba(19, 62, 101, 0.07)" stroke-width="1.5"></path><path d="M58.57 641.38L58.57 641.38" stroke="rgba(19, 62, 101, 0.07)" stroke-width="1.5"></path><path d="M58.57 641.38L218.34 653.37" stroke="rgba(19, 62, 101, 0.07)" stroke-width="1.5"></path><path d="M58.57 641.38L-67.99 536.98" stroke="rgba(19, 62, 101, 0.07)" stroke-width="1.5"></path><path d="M58.57 641.38L188.14 503.58" stroke="rgba(19, 62, 101, 0.07)" stroke-width="1.5"></path><path d="M58.57 641.38L54.93 400.57" stroke="rgba(19, 62, 101, 0.07)" stroke-width="1.5"></path><path d="M195.75 386.75L195.75 386.75" stroke="rgba(19, 62, 101, 0.07)" stroke-width="1.5"></path><path d="M195.75 386.75L188.14 503.58" stroke="rgba(19, 62, 101, 0.07)" stroke-width="1.5"></path><path d="M195.75 386.75L378.07 354.59" stroke="rgba(19, 62, 101, 0.07)" stroke-width="1.5"></path><path d="M195.75 386.75L42.87 522.23" stroke="rgba(19, 62, 101, 0.07)" stroke-width="1.5"></path><path d="M195.75 386.75L389.82 559.95" stroke="rgba(19, 62, 101, 0.07)" stroke-width="1.5"></path><path d="M188.14 503.58L188.14 503.58" stroke="rgba(19, 62, 101, 0.07)" stroke-width="1.5"></path><path d="M188.14 503.58L42.87 522.23" stroke="rgba(19, 62, 101, 0.07)" stroke-width="1.5"></path><path d="M188.14 503.58L218.34 653.37" stroke="rgba(19, 62, 101, 0.07)" stroke-width="1.5"></path><path d="M218.34 653.37L218.34 653.37" stroke="rgba(19, 62, 101, 0.07)" stroke-width="1.5"></path><path d="M218.34 653.37L402.84 671.38" stroke="rgba(19, 62, 101, 0.07)" stroke-width="1.5"></path><path d="M218.34 653.37L389.82 559.95" stroke="rgba(19, 62, 101, 0.07)" stroke-width="1.5"></path><path d="M218.34 653.37L42.87 522.23" stroke="rgba(19, 62, 101, 0.07)" stroke-width="1.5"></path><path d="M378.07 354.59L378.07 354.59" stroke="rgba(19, 62, 101, 0.07)" stroke-width="1.5"></path><path d="M378.07 354.59L541.86 398.9" stroke="rgba(19, 62, 101, 0.07)" stroke-width="1.5"></path><path d="M378.07 354.59L492.5 496.98" stroke="rgba(19, 62, 101, 0.07)" stroke-width="1.5"></path><path d="M378.07 354.59L389.82 559.95" stroke="rgba(19, 62, 101, 0.07)" stroke-width="1.5"></path><path d="M378.07 354.59L188.14 503.58" stroke="rgba(19, 62, 101, 0.07)" stroke-width="1.5"></path><path d="M389.82 559.95L389.82 559.95" stroke="rgba(19, 62, 101, 0.07)" stroke-width="1.5"></path><path d="M389.82 559.95L402.84 671.38" stroke="rgba(19, 62, 101, 0.07)" stroke-width="1.5"></path><path d="M389.82 559.95L492.5 496.98" stroke="rgba(19, 62, 101, 0.07)" stroke-width="1.5"></path><path d="M389.82 559.95L503.14 704.35" stroke="rgba(19, 62, 101, 0.07)" stroke-width="1.5"></path><path d="M389.82 559.95L188.14 503.58" stroke="rgba(19, 62, 101, 0.07)" stroke-width="1.5"></path><path d="M402.84 671.38L402.84 671.38" stroke="rgba(19, 62, 101, 0.07)" stroke-width="1.5"></path><path d="M402.84 671.38L503.14 704.35" stroke="rgba(19, 62, 101, 0.07)" stroke-width="1.5"></path><path d="M541.86 398.9L541.86 398.9" stroke="rgba(19, 62, 101, 0.07)" stroke-width="1.5"></path><path d="M541.86 398.9L492.5 496.98" stroke="rgba(19, 62, 101, 0.07)" stroke-width="1.5"></path><path d="M541.86 398.9L652.39 488.34" stroke="rgba(19, 62, 101, 0.07)" stroke-width="1.5"></path><path d="M541.86 398.9L683.85 371.84" stroke="rgba(19, 62, 101, 0.07)" stroke-width="1.5"></path><path d="M492.5 496.98L492.5 496.98" stroke="rgba(19, 62, 101, 0.07)" stroke-width="1.5"></path><path d="M492.5 496.98L652.39 488.34" stroke="rgba(19, 62, 101, 0.07)" stroke-width="1.5"></path><path d="M503.14 704.35L503.14 704.35" stroke="rgba(19, 62, 101, 0.07)" stroke-width="1.5"></path><path d="M683.85 371.84L683.85 371.84" stroke="rgba(19, 62, 101, 0.07)" stroke-width="1.5"></path><path d="M683.85 371.84L652.39 488.34" stroke="rgba(19, 62, 101, 0.07)" stroke-width="1.5"></path><path d="M683.85 371.84L858.6 370.49" stroke="rgba(19, 62, 101, 0.07)" stroke-width="1.5"></path><path d="M683.85 371.84L789.08 547.91" stroke="rgba(19, 62, 101, 0.07)" stroke-width="1.5"></path><path d="M683.85 371.84L861.74 246.72" stroke="rgba(19, 62, 101, 0.07)" stroke-width="1.5"></path><path d="M652.39 488.34L652.39 488.34" stroke="rgba(19, 62, 101, 0.07)" stroke-width="1.5"></path><path d="M652.39 488.34L789.08 547.91" stroke="rgba(19, 62, 101, 0.07)" stroke-width="1.5"></path><path d="M652.39 488.34L858.6 370.49" stroke="rgba(19, 62, 101, 0.07)" stroke-width="1.5"></path><path d="M827.93 107.13L827.93 107.13" stroke="rgba(19, 62, 101, 0.07)" stroke-width="1.5"></path><path d="M827.93 107.13L967.93 95.51" stroke="rgba(19, 62, 101, 0.07)" stroke-width="1.5"></path><path d="M827.93 107.13L861.74 246.72" stroke="rgba(19, 62, 101, 0.07)" stroke-width="1.5"></path><path d="M827.93 107.13L1006.65 216.69" stroke="rgba(19, 62, 101, 0.07)" stroke-width="1.5"></path><path d="M827.93 107.13L967.74 -97.11" stroke="rgba(19, 62, 101, 0.07)" stroke-width="1.5"></path><path d="M827.93 107.13L858.6 370.49" stroke="rgba(19, 62, 101, 0.07)" stroke-width="1.5"></path><path d="M827.93 107.13L683.85 371.84" stroke="rgba(19, 62, 101, 0.07)" stroke-width="1.5"></path><path d="M861.74 246.72L861.74 246.72" stroke="rgba(19, 62, 101, 0.07)" stroke-width="1.5"></path><path d="M861.74 246.72L858.6 370.49" stroke="rgba(19, 62, 101, 0.07)" stroke-width="1.5"></path><path d="M861.74 246.72L1006.65 216.69" stroke="rgba(19, 62, 101, 0.07)" stroke-width="1.5"></path><path d="M861.74 246.72L993.32 367.69" stroke="rgba(19, 62, 101, 0.07)" stroke-width="1.5"></path><path d="M861.74 246.72L967.93 95.51" stroke="rgba(19, 62, 101, 0.07)" stroke-width="1.5"></path><path d="M858.6 370.49L858.6 370.49" stroke="rgba(19, 62, 101, 0.07)" stroke-width="1.5"></path><path d="M858.6 370.49L993.32 367.69" stroke="rgba(19, 62, 101, 0.07)" stroke-width="1.5"></path><path d="M789.08 547.91L789.08 547.91" stroke="rgba(19, 62, 101, 0.07)" stroke-width="1.5"></path><path d="M789.08 547.91L943.11 554" stroke="rgba(19, 62, 101, 0.07)" stroke-width="1.5"></path><path d="M789.08 547.91L853.06 706.04" stroke="rgba(19, 62, 101, 0.07)" stroke-width="1.5"></path><path d="M789.08 547.91L858.6 370.49" stroke="rgba(19, 62, 101, 0.07)" stroke-width="1.5"></path><path d="M853.06 706.04L853.06 706.04" stroke="rgba(19, 62, 101, 0.07)" stroke-width="1.5"></path><path d="M853.06 706.04L1010.49 656.21" stroke="rgba(19, 62, 101, 0.07)" stroke-width="1.5"></path><path d="M853.06 706.04L943.11 554" stroke="rgba(19, 62, 101, 0.07)" stroke-width="1.5"></path><path d="M853.06 706.04L652.39 488.34" stroke="rgba(19, 62, 101, 0.07)" stroke-width="1.5"></path><path d="M967.74 -97.11L967.74 -97.11" stroke="rgba(19, 62, 101, 0.07)" stroke-width="1.5"></path><path d="M967.74 -97.11L1119.96 -90.06" stroke="rgba(19, 62, 101, 0.07)" stroke-width="1.5"></path><path d="M967.74 -97.11L967.93 95.51" stroke="rgba(19, 62, 101, 0.07)" stroke-width="1.5"></path><path d="M967.74 -97.11L1143.36 49.71" stroke="rgba(19, 62, 101, 0.07)" stroke-width="1.5"></path><path d="M967.74 -97.11L1242.22 -93.25" stroke="rgba(19, 62, 101, 0.07)" stroke-width="1.5"></path><path d="M967.74 -97.11L1006.65 216.69" stroke="rgba(19, 62, 101, 0.07)" stroke-width="1.5"></path><path d="M967.93 95.51L967.93 95.51" stroke="rgba(19, 62, 101, 0.07)" stroke-width="1.5"></path><path d="M967.93 95.51L1006.65 216.69" stroke="rgba(19, 62, 101, 0.07)" stroke-width="1.5"></path><path d="M967.93 95.51L1143.36 49.71" stroke="rgba(19, 62, 101, 0.07)" stroke-width="1.5"></path><path d="M1006.65 216.69L1006.65 216.69" stroke="rgba(19, 62, 101, 0.07)" stroke-width="1.5"></path><path d="M1006.65 216.69L1143.69 245.01" stroke="rgba(19, 62, 101, 0.07)" stroke-width="1.5"></path><path d="M1006.65 216.69L993.32 367.69" stroke="rgba(19, 62, 101, 0.07)" stroke-width="1.5"></path><path d="M1006.65 216.69L858.6 370.49" stroke="rgba(19, 62, 101, 0.07)" stroke-width="1.5"></path><path d="M993.32 367.69L993.32 367.69" stroke="rgba(19, 62, 101, 0.07)" stroke-width="1.5"></path><path d="M943.11 554L943.11 554" stroke="rgba(19, 62, 101, 0.07)" stroke-width="1.5"></path><path d="M943.11 554L1010.49 656.21" stroke="rgba(19, 62, 101, 0.07)" stroke-width="1.5"></path><path d="M1010.49 656.21L1010.49 656.21" stroke="rgba(19, 62, 101, 0.07)" stroke-width="1.5"></path><path d="M1010.49 656.21L1157.74 697.41" stroke="rgba(19, 62, 101, 0.07)" stroke-width="1.5"></path><path d="M1010.49 656.21L1130.33 529.18" stroke="rgba(19, 62, 101, 0.07)" stroke-width="1.5"></path><path d="M1010.49 656.21L789.08 547.91" stroke="rgba(19, 62, 101, 0.07)" stroke-width="1.5"></path><path d="M1119.96 -90.06L1119.96 -90.06" stroke="rgba(19, 62, 101, 0.07)" stroke-width="1.5"></path><path d="M1119.96 -90.06L1242.22 -93.25" stroke="rgba(19, 62, 101, 0.07)" stroke-width="1.5"></path><path d="M1119.96 -90.06L1143.36 49.71" stroke="rgba(19, 62, 101, 0.07)" stroke-width="1.5"></path><path d="M1119.96 -90.06L1284.67 56.76" stroke="rgba(19, 62, 101, 0.07)" stroke-width="1.5"></path><path d="M1143.36 49.71L1143.36 49.71" stroke="rgba(19, 62, 101, 0.07)" stroke-width="1.5"></path><path d="M1143.36 49.71L1284.67 56.76" stroke="rgba(19, 62, 101, 0.07)" stroke-width="1.5"></path><path d="M1143.69 245.01L1143.69 245.01" stroke="rgba(19, 62, 101, 0.07)" stroke-width="1.5"></path><path d="M1143.69 245.01L1286.7 206.69" stroke="rgba(19, 62, 101, 0.07)" stroke-width="1.5"></path><path d="M1143.69 245.01L993.32 367.69" stroke="rgba(19, 62, 101, 0.07)" stroke-width="1.5"></path><path d="M1143.69 245.01L1143.36 49.71" stroke="rgba(19, 62, 101, 0.07)" stroke-width="1.5"></path><path d="M1143.69 245.01L1290.49 405.53" stroke="rgba(19, 62, 101, 0.07)" stroke-width="1.5"></path><path d="M1143.69 245.01L967.93 95.51" stroke="rgba(19, 62, 101, 0.07)" stroke-width="1.5"></path><path d="M1130.33 529.18L1130.33 529.18" stroke="rgba(19, 62, 101, 0.07)" stroke-width="1.5"></path><path d="M1130.33 529.18L1298.31 552.32" stroke="rgba(19, 62, 101, 0.07)" stroke-width="1.5"></path><path d="M1130.33 529.18L1157.74 697.41" stroke="rgba(19, 62, 101, 0.07)" stroke-width="1.5"></path><path d="M1157.74 697.41L1157.74 697.41" stroke="rgba(19, 62, 101, 0.07)" stroke-width="1.5"></path><path d="M1157.74 697.41L1283.62 687.47" stroke="rgba(19, 62, 101, 0.07)" stroke-width="1.5"></path><path d="M1157.74 697.41L1298.31 552.32" stroke="rgba(19, 62, 101, 0.07)" stroke-width="1.5"></path><path d="M1157.74 697.41L943.11 554" stroke="rgba(19, 62, 101, 0.07)" stroke-width="1.5"></path><path d="M1157.74 697.41L1431.22 654.76" stroke="rgba(19, 62, 101, 0.07)" stroke-width="1.5"></path><path d="M1242.22 -93.25L1242.22 -93.25" stroke="rgba(19, 62, 101, 0.07)" stroke-width="1.5"></path><path d="M1242.22 -93.25L1284.67 56.76" stroke="rgba(19, 62, 101, 0.07)" stroke-width="1.5"></path><path d="M1242.22 -93.25L1143.36 49.71" stroke="rgba(19, 62, 101, 0.07)" stroke-width="1.5"></path><path d="M1242.22 -93.25L1426.1 -40.32" stroke="rgba(19, 62, 101, 0.07)" stroke-width="1.5"></path><path d="M1284.67 56.76L1284.67 56.76" stroke="rgba(19, 62, 101, 0.07)" stroke-width="1.5"></path><path d="M1284.67 56.76L1286.7 206.69" stroke="rgba(19, 62, 101, 0.07)" stroke-width="1.5"></path><path d="M1286.7 206.69L1286.7 206.69" stroke="rgba(19, 62, 101, 0.07)" stroke-width="1.5"></path><path d="M1286.7 206.69L1438.82 189.28" stroke="rgba(19, 62, 101, 0.07)" stroke-width="1.5"></path><path d="M1286.7 206.69L1290.49 405.53" stroke="rgba(19, 62, 101, 0.07)" stroke-width="1.5"></path><path d="M1286.7 206.69L1439.05 349.78" stroke="rgba(19, 62, 101, 0.07)" stroke-width="1.5"></path><path d="M1286.7 206.69L1143.36 49.71" stroke="rgba(19, 62, 101, 0.07)" stroke-width="1.5"></path><path d="M1290.49 405.53L1290.49 405.53" stroke="rgba(19, 62, 101, 0.07)" stroke-width="1.5"></path><path d="M1290.49 405.53L1298.31 552.32" stroke="rgba(19, 62, 101, 0.07)" stroke-width="1.5"></path><path d="M1290.49 405.53L1439.05 349.78" stroke="rgba(19, 62, 101, 0.07)" stroke-width="1.5"></path><path d="M1290.49 405.53L1400.7 557.57" stroke="rgba(19, 62, 101, 0.07)" stroke-width="1.5"></path><path d="M1290.49 405.53L1130.33 529.18" stroke="rgba(19, 62, 101, 0.07)" stroke-width="1.5"></path><path d="M1298.31 552.32L1298.31 552.32" stroke="rgba(19, 62, 101, 0.07)" stroke-width="1.5"></path><path d="M1298.31 552.32L1400.7 557.57" stroke="rgba(19, 62, 101, 0.07)" stroke-width="1.5"></path><path d="M1298.31 552.32L1283.62 687.47" stroke="rgba(19, 62, 101, 0.07)" stroke-width="1.5"></path><path d="M1298.31 552.32L1431.22 654.76" stroke="rgba(19, 62, 101, 0.07)" stroke-width="1.5"></path><path d="M1283.62 687.47L1283.62 687.47" stroke="rgba(19, 62, 101, 0.07)" stroke-width="1.5"></path><path d="M1283.62 687.47L1431.22 654.76" stroke="rgba(19, 62, 101, 0.07)" stroke-width="1.5"></path><path d="M1283.62 687.47L1400.7 557.57" stroke="rgba(19, 62, 101, 0.07)" stroke-width="1.5"></path><path d="M1283.62 687.47L1130.33 529.18" stroke="rgba(19, 62, 101, 0.07)" stroke-width="1.5"></path><path d="M1283.62 687.47L1010.49 656.21" stroke="rgba(19, 62, 101, 0.07)" stroke-width="1.5"></path><path d="M1426.1 -40.32L1426.1 -40.32" stroke="rgba(19, 62, 101, 0.07)" stroke-width="1.5"></path><path d="M1426.1 -40.32L1460.08 51.52" stroke="rgba(19, 62, 101, 0.07)" stroke-width="1.5"></path><path d="M1460.08 51.52L1460.08 51.52" stroke="rgba(19, 62, 101, 0.07)" stroke-width="1.5"></path><path d="M1460.08 51.52L1569.79 110.49" stroke="rgba(19, 62, 101, 0.07)" stroke-width="1.5"></path><path d="M1460.08 51.52L1438.82 189.28" stroke="rgba(19, 62, 101, 0.07)" stroke-width="1.5"></path><path d="M1460.08 51.52L1284.67 56.76" stroke="rgba(19, 62, 101, 0.07)" stroke-width="1.5"></path><path d="M1460.08 51.52L1539.95 -109.82" stroke="rgba(19, 62, 101, 0.07)" stroke-width="1.5"></path><path d="M1460.08 51.52L1575.74 229.48" stroke="rgba(19, 62, 101, 0.07)" stroke-width="1.5"></path><path d="M1438.82 189.28L1438.82 189.28" stroke="rgba(19, 62, 101, 0.07)" stroke-width="1.5"></path><path d="M1438.82 189.28L1575.74 229.48" stroke="rgba(19, 62, 101, 0.07)" stroke-width="1.5"></path><path d="M1438.82 189.28L1569.79 110.49" stroke="rgba(19, 62, 101, 0.07)" stroke-width="1.5"></path><path d="M1439.05 349.78L1439.05 349.78" stroke="rgba(19, 62, 101, 0.07)" stroke-width="1.5"></path><path d="M1439.05 349.78L1586.92 347.25" stroke="rgba(19, 62, 101, 0.07)" stroke-width="1.5"></path><path d="M1400.7 557.57L1400.7 557.57" stroke="rgba(19, 62, 101, 0.07)" stroke-width="1.5"></path><path d="M1400.7 557.57L1431.22 654.76" stroke="rgba(19, 62, 101, 0.07)" stroke-width="1.5"></path><path d="M1400.7 557.57L1554.52 531.33" stroke="rgba(19, 62, 101, 0.07)" stroke-width="1.5"></path><path d="M1431.22 654.76L1431.22 654.76" stroke="rgba(19, 62, 101, 0.07)" stroke-width="1.5"></path><path d="M1431.22 654.76L1574.78 684.18" stroke="rgba(19, 62, 101, 0.07)" stroke-width="1.5"></path><path d="M1539.95 -109.82L1539.95 -109.82" stroke="rgba(19, 62, 101, 0.07)" stroke-width="1.5"></path><path d="M1539.95 -109.82L1426.1 -40.32" stroke="rgba(19, 62, 101, 0.07)" stroke-width="1.5"></path><path d="M1539.95 -109.82L1569.79 110.49" stroke="rgba(19, 62, 101, 0.07)" stroke-width="1.5"></path><path d="M1569.79 110.49L1569.79 110.49" stroke="rgba(19, 62, 101, 0.07)" stroke-width="1.5"></path><path d="M1569.79 110.49L1575.74 229.48" stroke="rgba(19, 62, 101, 0.07)" stroke-width="1.5"></path><path d="M1569.79 110.49L1426.1 -40.32" stroke="rgba(19, 62, 101, 0.07)" stroke-width="1.5"></path><path d="M1575.74 229.48L1575.74 229.48" stroke="rgba(19, 62, 101, 0.07)" stroke-width="1.5"></path><path d="M1575.74 229.48L1586.92 347.25" stroke="rgba(19, 62, 101, 0.07)" stroke-width="1.5"></path><path d="M1586.92 347.25L1586.92 347.25" stroke="rgba(19, 62, 101, 0.07)" stroke-width="1.5"></path><path d="M1554.52 531.33L1554.52 531.33" stroke="rgba(19, 62, 101, 0.07)" stroke-width="1.5"></path><path d="M1554.52 531.33L1574.78 684.18" stroke="rgba(19, 62, 101, 0.07)" stroke-width="1.5"></path><path d="M1554.52 531.33L1431.22 654.76" stroke="rgba(19, 62, 101, 0.07)" stroke-width="1.5"></path><path d="M1554.52 531.33L1586.92 347.25" stroke="rgba(19, 62, 101, 0.07)" stroke-width="1.5"></path><path d="M1554.52 531.33L1439.05 349.78" stroke="rgba(19, 62, 101, 0.07)" stroke-width="1.5"></path><path d="M1554.52 531.33L1298.31 552.32" stroke="rgba(19, 62, 101, 0.07)" stroke-width="1.5"></path><path d="M1574.78 684.18L1574.78 684.18" stroke="rgba(19, 62, 101, 0.07)" stroke-width="1.5"></path><path d="M1574.78 684.18L1400.7 557.57" stroke="rgba(19, 62, 101, 0.07)" stroke-width="1.5"></path><path d="M1574.78 684.18L1283.62 687.47" stroke="rgba(19, 62, 101, 0.07)" stroke-width="1.5"></path><path d="M1574.78 684.18L1298.31 552.32" stroke="rgba(19, 62, 101, 0.07)" stroke-width="1.5"></path><circle r="5" cx="-93.25" cy="379.04" fill="rgba(19, 62, 101, 0.07)"></circle><circle r="5" cx="-67.99" cy="536.98" fill="rgba(19, 62, 101, 0.07)"></circle><circle r="5" cx="-55.8" cy="699.08" fill="rgba(19, 62, 101, 0.07)"></circle><circle r="5" cx="54.93" cy="400.57" fill="rgba(19, 62, 101, 0.07)"></circle><circle r="5" cx="42.87" cy="522.23" fill="rgba(19, 62, 101, 0.07)"></circle><circle r="5" cx="58.57" cy="641.38" fill="rgba(19, 62, 101, 0.07)"></circle><circle r="5" cx="195.75" cy="386.75" fill="rgba(19, 62, 101, 0.07)"></circle><circle r="5" cx="188.14" cy="503.58" fill="rgba(19, 62, 101, 0.07)"></circle><circle r="5" cx="218.34" cy="653.37" fill="rgba(19, 62, 101, 0.07)"></circle><circle r="5" cx="378.07" cy="354.59" fill="rgba(19, 62, 101, 0.07)"></circle><circle r="5" cx="389.82" cy="559.95" fill="rgba(19, 62, 101, 0.07)"></circle><circle r="5" cx="402.84" cy="671.38" fill="rgba(19, 62, 101, 0.07)"></circle><circle r="5" cx="541.86" cy="398.9" fill="rgba(19, 62, 101, 0.07)"></circle><circle r="5" cx="492.5" cy="496.98" fill="rgba(19, 62, 101, 0.07)"></circle><circle r="5" cx="503.14" cy="704.35" fill="rgba(19, 62, 101, 0.07)"></circle><circle r="5" cx="683.85" cy="371.84" fill="rgba(19, 62, 101, 0.07)"></circle><circle r="5" cx="652.39" cy="488.34" fill="rgba(19, 62, 101, 0.07)"></circle><circle r="5" cx="827.93" cy="107.13" fill="rgba(19, 62, 101, 0.07)"></circle><circle r="5" cx="861.74" cy="246.72" fill="rgba(19, 62, 101, 0.07)"></circle><circle r="5" cx="858.6" cy="370.49" fill="rgba(19, 62, 101, 0.07)"></circle><circle r="5" cx="789.08" cy="547.91" fill="rgba(19, 62, 101, 0.07)"></circle><circle r="5" cx="853.06" cy="706.04" fill="rgba(19, 62, 101, 0.07)"></circle><circle r="5" cx="967.74" cy="-97.11" fill="rgba(19, 62, 101, 0.07)"></circle><circle r="5" cx="967.93" cy="95.51" fill="rgba(19, 62, 101, 0.07)"></circle><circle r="5" cx="1006.65" cy="216.69" fill="rgba(19, 62, 101, 0.07)"></circle><circle r="5" cx="993.32" cy="367.69" fill="rgba(19, 62, 101, 0.07)"></circle><circle r="5" cx="943.11" cy="554" fill="rgba(19, 62, 101, 0.07)"></circle><circle r="5" cx="1010.49" cy="656.21" fill="rgba(19, 62, 101, 0.07)"></circle><circle r="5" cx="1119.96" cy="-90.06" fill="rgba(19, 62, 101, 0.07)"></circle><circle r="5" cx="1143.36" cy="49.71" fill="rgba(19, 62, 101, 0.07)"></circle><circle r="5" cx="1143.69" cy="245.01" fill="rgba(19, 62, 101, 0.07)"></circle><circle r="5" cx="1130.33" cy="529.18" fill="rgba(19, 62, 101, 0.07)"></circle><circle r="5" cx="1157.74" cy="697.41" fill="rgba(19, 62, 101, 0.07)"></circle><circle r="5" cx="1242.22" cy="-93.25" fill="rgba(19, 62, 101, 0.07)"></circle><circle r="5" cx="1284.67" cy="56.76" fill="rgba(19, 62, 101, 0.07)"></circle><circle r="5" cx="1286.7" cy="206.69" fill="rgba(19, 62, 101, 0.07)"></circle><circle r="5" cx="1290.49" cy="405.53" fill="rgba(19, 62, 101, 0.07)"></circle><circle r="5" cx="1298.31" cy="552.32" fill="rgba(19, 62, 101, 0.07)"></circle><circle r="5" cx="1283.62" cy="687.47" fill="rgba(19, 62, 101, 0.07)"></circle><circle r="5" cx="1426.1" cy="-40.32" fill="rgba(19, 62, 101, 0.07)"></circle><circle r="5" cx="1460.08" cy="51.52" fill="rgba(19, 62, 101, 0.07)"></circle><circle r="5" cx="1438.82" cy="189.28" fill="rgba(19, 62, 101, 0.07)"></circle><circle r="5" cx="1439.05" cy="349.78" fill="rgba(19, 62, 101, 0.07)"></circle><circle r="5" cx="1400.7" cy="557.57" fill="rgba(19, 62, 101, 0.07)"></circle><circle r="5" cx="1431.22" cy="654.76" fill="rgba(19, 62, 101, 0.07)"></circle><circle r="5" cx="1539.95" cy="-109.82" fill="rgba(19, 62, 101, 0.07)"></circle><circle r="5" cx="1569.79" cy="110.49" fill="rgba(19, 62, 101, 0.07)"></circle><circle r="5" cx="1575.74" cy="229.48" fill="rgba(19, 62, 101, 0.07)"></circle><circle r="5" cx="1586.92" cy="347.25" fill="rgba(19, 62, 101, 0.07)"></circle><circle r="5" cx="1554.52" cy="531.33" fill="rgba(19, 62, 101, 0.07)"></circle><circle r="5" cx="1574.78" cy="684.18" fill="rgba(19, 62, 101, 0.07)"></circle><path d="M-45.13 692.79L-45.13 692.79" stroke="hsla(228.5, 77.2%, 51.5%, 0.08)" stroke-width="1.5"></path><path d="M-45.13 692.79L106.09 699.46" stroke="hsla(228.5, 77.2%, 51.5%, 0.08)" stroke-width="1.5"></path><path d="M-45.13 692.79L-104.53 499.31" stroke="hsla(228.5, 77.2%, 51.5%, 0.08)" stroke-width="1.5"></path><path d="M-45.13 692.79L89.97 490.27" stroke="hsla(228.5, 77.2%, 51.5%, 0.08)" stroke-width="1.5"></path><path d="M-45.13 692.79L193.38 496.67" stroke="hsla(228.5, 77.2%, 51.5%, 0.08)" stroke-width="1.5"></path><path d="M-45.13 692.79L347.84 560.63" stroke="hsla(228.5, 77.2%, 51.5%, 0.08)" stroke-width="1.5"></path><path d="M-45.13 692.79L389.97 697.98" stroke="hsla(228.5, 77.2%, 51.5%, 0.08)" stroke-width="1.5"></path><path d="M543.93 662.84L543.93 662.84" stroke="hsla(228.5, 77.2%, 51.5%, 0.08)" stroke-width="1.5"></path><path d="M543.93 662.84L649.14 685.16" stroke="hsla(228.5, 77.2%, 51.5%, 0.08)" stroke-width="1.5"></path><path d="M543.93 662.84L529.99 507.96" stroke="hsla(228.5, 77.2%, 51.5%, 0.08)" stroke-width="1.5"></path><path d="M649.14 685.16L649.14 685.16" stroke="hsla(228.5, 77.2%, 51.5%, 0.08)" stroke-width="1.5"></path><path d="M649.14 685.16L705.76 554.24" stroke="hsla(228.5, 77.2%, 51.5%, 0.08)" stroke-width="1.5"></path><path d="M856.97 362.03L856.97 362.03" stroke="hsla(228.5, 77.2%, 51.5%, 0.08)" stroke-width="1.5"></path><path d="M856.97 362.03L970.82 378.01" stroke="hsla(228.5, 77.2%, 51.5%, 0.08)" stroke-width="1.5"></path><path d="M856.97 362.03L791.68 491.03" stroke="hsla(228.5, 77.2%, 51.5%, 0.08)" stroke-width="1.5"></path><path d="M856.97 362.03L1010.36 230.6" stroke="hsla(228.5, 77.2%, 51.5%, 0.08)" stroke-width="1.5"></path><path d="M856.97 362.03L963.26 539.48" stroke="hsla(228.5, 77.2%, 51.5%, 0.08)" stroke-width="1.5"></path><path d="M856.97 362.03L705.76 554.24" stroke="hsla(228.5, 77.2%, 51.5%, 0.08)" stroke-width="1.5"></path><path d="M856.97 362.03L1124.6 344.37" stroke="hsla(228.5, 77.2%, 51.5%, 0.08)" stroke-width="1.5"></path><path d="M791.68 491.03L791.68 491.03" stroke="hsla(228.5, 77.2%, 51.5%, 0.08)" stroke-width="1.5"></path><path d="M791.68 491.03L705.76 554.24" stroke="hsla(228.5, 77.2%, 51.5%, 0.08)" stroke-width="1.5"></path><path d="M791.68 491.03L825.25 654.68" stroke="hsla(228.5, 77.2%, 51.5%, 0.08)" stroke-width="1.5"></path><path d="M791.68 491.03L963.26 539.48" stroke="hsla(228.5, 77.2%, 51.5%, 0.08)" stroke-width="1.5"></path><path d="M791.68 491.03L970.82 378.01" stroke="hsla(228.5, 77.2%, 51.5%, 0.08)" stroke-width="1.5"></path><path d="M791.68 491.03L649.14 685.16" stroke="hsla(228.5, 77.2%, 51.5%, 0.08)" stroke-width="1.5"></path><path d="M1249.49 -104.62L1249.49 -104.62" stroke="hsla(228.5, 77.2%, 51.5%, 0.08)" stroke-width="1.5"></path><path d="M1249.49 -104.62L1445.39 -87.62" stroke="hsla(228.5, 77.2%, 51.5%, 0.08)" stroke-width="1.5"></path><path d="M1249.49 -104.62L1249.25 101.17" stroke="hsla(228.5, 77.2%, 51.5%, 0.08)" stroke-width="1.5"></path><path d="M1266.92 531.92L1266.92 531.92" stroke="hsla(228.5, 77.2%, 51.5%, 0.08)" stroke-width="1.5"></path><path d="M1266.92 531.92L1136.85 522.35" stroke="hsla(228.5, 77.2%, 51.5%, 0.08)" stroke-width="1.5"></path><path d="M1266.92 531.92L1425.18 546.43" stroke="hsla(228.5, 77.2%, 51.5%, 0.08)" stroke-width="1.5"></path><path d="M1266.92 531.92L1300.52 371.64" stroke="hsla(228.5, 77.2%, 51.5%, 0.08)" stroke-width="1.5"></path><path d="M1266.92 531.92L1157.05 653.71" stroke="hsla(228.5, 77.2%, 51.5%, 0.08)" stroke-width="1.5"></path><path d="M1266.92 531.92L1253.23 699.56" stroke="hsla(228.5, 77.2%, 51.5%, 0.08)" stroke-width="1.5"></path><path d="M1266.92 531.92L1420.15 690.29" stroke="hsla(228.5, 77.2%, 51.5%, 0.08)" stroke-width="1.5"></path><path d="M1420.15 690.29L1420.15 690.29" stroke="hsla(228.5, 77.2%, 51.5%, 0.08)" stroke-width="1.5"></path><path d="M1420.15 690.29L1549.13 671.92" stroke="hsla(228.5, 77.2%, 51.5%, 0.08)" stroke-width="1.5"></path><path d="M1580.1 532.06L1580.1 532.06" stroke="hsla(228.5, 77.2%, 51.5%, 0.08)" stroke-width="1.5"></path><path d="M1580.1 532.06L1606.64 392.06" stroke="hsla(228.5, 77.2%, 51.5%, 0.08)" stroke-width="1.5"></path><path d="M1580.1 532.06L1549.13 671.92" stroke="hsla(228.5, 77.2%, 51.5%, 0.08)" stroke-width="1.5"></path><path d="M1580.1 532.06L1425.18 546.43" stroke="hsla(228.5, 77.2%, 51.5%, 0.08)" stroke-width="1.5"></path><path d="M1549.13 671.92L1549.13 671.92" stroke="hsla(228.5, 77.2%, 51.5%, 0.08)" stroke-width="1.5"></path><path d="M1549.13 671.92L1425.18 546.43" stroke="hsla(228.5, 77.2%, 51.5%, 0.08)" stroke-width="1.5"></path><path d="M1549.13 671.92L1606.64 392.06" stroke="hsla(228.5, 77.2%, 51.5%, 0.08)" stroke-width="1.5"></path><path d="M1549.13 671.92L1253.23 699.56" stroke="hsla(228.5, 77.2%, 51.5%, 0.08)" stroke-width="1.5"></path><path d="M1549.13 671.92L1266.92 531.92" stroke="hsla(228.5, 77.2%, 51.5%, 0.08)" stroke-width="1.5"></path><path d="M-104.53 499.31L-104.53 499.31" stroke="hsla(228.5, 77.2%, 51.5%, 0.08)" stroke-width="1.5"></path><path d="M-104.53 499.31L89.97 490.27" stroke="hsla(228.5, 77.2%, 51.5%, 0.08)" stroke-width="1.5"></path><path d="M-104.53 499.31L106.09 699.46" stroke="hsla(228.5, 77.2%, 51.5%, 0.08)" stroke-width="1.5"></path><path d="M-104.53 499.31L193.38 496.67" stroke="hsla(228.5, 77.2%, 51.5%, 0.08)" stroke-width="1.5"></path><path d="M-104.53 499.31L347.84 560.63" stroke="hsla(228.5, 77.2%, 51.5%, 0.08)" stroke-width="1.5"></path><path d="M-104.53 499.31L389.97 697.98" stroke="hsla(228.5, 77.2%, 51.5%, 0.08)" stroke-width="1.5"></path><path d="M89.97 490.27L89.97 490.27" stroke="hsla(228.5, 77.2%, 51.5%, 0.08)" stroke-width="1.5"></path><path d="M89.97 490.27L193.38 496.67" stroke="hsla(228.5, 77.2%, 51.5%, 0.08)" stroke-width="1.5"></path><path d="M89.97 490.27L106.09 699.46" stroke="hsla(228.5, 77.2%, 51.5%, 0.08)" stroke-width="1.5"></path><path d="M106.09 699.46L106.09 699.46" stroke="hsla(228.5, 77.2%, 51.5%, 0.08)" stroke-width="1.5"></path><path d="M193.38 496.67L193.38 496.67" stroke="hsla(228.5, 77.2%, 51.5%, 0.08)" stroke-width="1.5"></path><path d="M193.38 496.67L347.84 560.63" stroke="hsla(228.5, 77.2%, 51.5%, 0.08)" stroke-width="1.5"></path><path d="M347.84 560.63L347.84 560.63" stroke="hsla(228.5, 77.2%, 51.5%, 0.08)" stroke-width="1.5"></path><path d="M347.84 560.63L389.97 697.98" stroke="hsla(228.5, 77.2%, 51.5%, 0.08)" stroke-width="1.5"></path><path d="M347.84 560.63L529.99 507.96" stroke="hsla(228.5, 77.2%, 51.5%, 0.08)" stroke-width="1.5"></path><path d="M347.84 560.63L543.93 662.84" stroke="hsla(228.5, 77.2%, 51.5%, 0.08)" stroke-width="1.5"></path><path d="M347.84 560.63L89.97 490.27" stroke="hsla(228.5, 77.2%, 51.5%, 0.08)" stroke-width="1.5"></path><path d="M389.97 697.98L389.97 697.98" stroke="hsla(228.5, 77.2%, 51.5%, 0.08)" stroke-width="1.5"></path><path d="M389.97 697.98L543.93 662.84" stroke="hsla(228.5, 77.2%, 51.5%, 0.08)" stroke-width="1.5"></path><path d="M389.97 697.98L529.99 507.96" stroke="hsla(228.5, 77.2%, 51.5%, 0.08)" stroke-width="1.5"></path><path d="M389.97 697.98L649.14 685.16" stroke="hsla(228.5, 77.2%, 51.5%, 0.08)" stroke-width="1.5"></path><path d="M389.97 697.98L193.38 496.67" stroke="hsla(228.5, 77.2%, 51.5%, 0.08)" stroke-width="1.5"></path><path d="M389.97 697.98L106.09 699.46" stroke="hsla(228.5, 77.2%, 51.5%, 0.08)" stroke-width="1.5"></path><path d="M529.99 507.96L529.99 507.96" stroke="hsla(228.5, 77.2%, 51.5%, 0.08)" stroke-width="1.5"></path><path d="M529.99 507.96L705.76 554.24" stroke="hsla(228.5, 77.2%, 51.5%, 0.08)" stroke-width="1.5"></path><path d="M705.76 554.24L705.76 554.24" stroke="hsla(228.5, 77.2%, 51.5%, 0.08)" stroke-width="1.5"></path><path d="M825.25 654.68L825.25 654.68" stroke="hsla(228.5, 77.2%, 51.5%, 0.08)" stroke-width="1.5"></path><path d="M825.25 654.68L705.76 554.24" stroke="hsla(228.5, 77.2%, 51.5%, 0.08)" stroke-width="1.5"></path><path d="M1010.36 230.6L1010.36 230.6" stroke="hsla(228.5, 77.2%, 51.5%, 0.08)" stroke-width="1.5"></path><path d="M1010.36 230.6L1125 216.35" stroke="hsla(228.5, 77.2%, 51.5%, 0.08)" stroke-width="1.5"></path><path d="M1010.36 230.6L970.82 378.01" stroke="hsla(228.5, 77.2%, 51.5%, 0.08)" stroke-width="1.5"></path><path d="M1010.36 230.6L1124.6 344.37" stroke="hsla(228.5, 77.2%, 51.5%, 0.08)" stroke-width="1.5"></path><path d="M970.82 378.01L970.82 378.01" stroke="hsla(228.5, 77.2%, 51.5%, 0.08)" stroke-width="1.5"></path><path d="M970.82 378.01L1124.6 344.37" stroke="hsla(228.5, 77.2%, 51.5%, 0.08)" stroke-width="1.5"></path><path d="M970.82 378.01L963.26 539.48" stroke="hsla(228.5, 77.2%, 51.5%, 0.08)" stroke-width="1.5"></path><path d="M963.26 539.48L963.26 539.48" stroke="hsla(228.5, 77.2%, 51.5%, 0.08)" stroke-width="1.5"></path><path d="M963.26 539.48L1005.39 650.99" stroke="hsla(228.5, 77.2%, 51.5%, 0.08)" stroke-width="1.5"></path><path d="M1005.39 650.99L1005.39 650.99" stroke="hsla(228.5, 77.2%, 51.5%, 0.08)" stroke-width="1.5"></path><path d="M1005.39 650.99L1157.05 653.71" stroke="hsla(228.5, 77.2%, 51.5%, 0.08)" stroke-width="1.5"></path><path d="M1005.39 650.99L825.25 654.68" stroke="hsla(228.5, 77.2%, 51.5%, 0.08)" stroke-width="1.5"></path><path d="M1005.39 650.99L1136.85 522.35" stroke="hsla(228.5, 77.2%, 51.5%, 0.08)" stroke-width="1.5"></path><path d="M1005.39 650.99L1253.23 699.56" stroke="hsla(228.5, 77.2%, 51.5%, 0.08)" stroke-width="1.5"></path><path d="M1125 216.35L1125 216.35" stroke="hsla(228.5, 77.2%, 51.5%, 0.08)" stroke-width="1.5"></path><path d="M1125 216.35L1124.6 344.37" stroke="hsla(228.5, 77.2%, 51.5%, 0.08)" stroke-width="1.5"></path><path d="M1124.6 344.37L1124.6 344.37" stroke="hsla(228.5, 77.2%, 51.5%, 0.08)" stroke-width="1.5"></path><path d="M1124.6 344.37L1300.52 371.64" stroke="hsla(228.5, 77.2%, 51.5%, 0.08)" stroke-width="1.5"></path><path d="M1124.6 344.37L1136.85 522.35" stroke="hsla(228.5, 77.2%, 51.5%, 0.08)" stroke-width="1.5"></path><path d="M1124.6 344.37L1283.03 250.75" stroke="hsla(228.5, 77.2%, 51.5%, 0.08)" stroke-width="1.5"></path><path d="M1136.85 522.35L1136.85 522.35" stroke="hsla(228.5, 77.2%, 51.5%, 0.08)" stroke-width="1.5"></path><path d="M1136.85 522.35L1157.05 653.71" stroke="hsla(228.5, 77.2%, 51.5%, 0.08)" stroke-width="1.5"></path><path d="M1136.85 522.35L963.26 539.48" stroke="hsla(228.5, 77.2%, 51.5%, 0.08)" stroke-width="1.5"></path><path d="M1157.05 653.71L1157.05 653.71" stroke="hsla(228.5, 77.2%, 51.5%, 0.08)" stroke-width="1.5"></path><path d="M1157.05 653.71L1253.23 699.56" stroke="hsla(228.5, 77.2%, 51.5%, 0.08)" stroke-width="1.5"></path><path d="M1157.05 653.71L963.26 539.48" stroke="hsla(228.5, 77.2%, 51.5%, 0.08)" stroke-width="1.5"></path><path d="M1157.05 653.71L1420.15 690.29" stroke="hsla(228.5, 77.2%, 51.5%, 0.08)" stroke-width="1.5"></path><path d="M1249.25 101.17L1249.25 101.17" stroke="hsla(228.5, 77.2%, 51.5%, 0.08)" stroke-width="1.5"></path><path d="M1249.25 101.17L1283.03 250.75" stroke="hsla(228.5, 77.2%, 51.5%, 0.08)" stroke-width="1.5"></path><path d="M1249.25 101.17L1125 216.35" stroke="hsla(228.5, 77.2%, 51.5%, 0.08)" stroke-width="1.5"></path><path d="M1249.25 101.17L1444.23 46.38" stroke="hsla(228.5, 77.2%, 51.5%, 0.08)" stroke-width="1.5"></path><path d="M1249.25 101.17L1407.74 256.42" stroke="hsla(228.5, 77.2%, 51.5%, 0.08)" stroke-width="1.5"></path><path d="M1249.25 101.17L1010.36 230.6" stroke="hsla(228.5, 77.2%, 51.5%, 0.08)" stroke-width="1.5"></path><path d="M1283.03 250.75L1283.03 250.75" stroke="hsla(228.5, 77.2%, 51.5%, 0.08)" stroke-width="1.5"></path><path d="M1283.03 250.75L1300.52 371.64" stroke="hsla(228.5, 77.2%, 51.5%, 0.08)" stroke-width="1.5"></path><path d="M1283.03 250.75L1407.74 256.42" stroke="hsla(228.5, 77.2%, 51.5%, 0.08)" stroke-width="1.5"></path><path d="M1283.03 250.75L1125 216.35" stroke="hsla(228.5, 77.2%, 51.5%, 0.08)" stroke-width="1.5"></path><path d="M1300.52 371.64L1300.52 371.64" stroke="hsla(228.5, 77.2%, 51.5%, 0.08)" stroke-width="1.5"></path><path d="M1300.52 371.64L1446.04 368.94" stroke="hsla(228.5, 77.2%, 51.5%, 0.08)" stroke-width="1.5"></path><path d="M1300.52 371.64L1407.74 256.42" stroke="hsla(228.5, 77.2%, 51.5%, 0.08)" stroke-width="1.5"></path><path d="M1300.52 371.64L1425.18 546.43" stroke="hsla(228.5, 77.2%, 51.5%, 0.08)" stroke-width="1.5"></path><path d="M1253.23 699.56L1253.23 699.56" stroke="hsla(228.5, 77.2%, 51.5%, 0.08)" stroke-width="1.5"></path><path d="M1253.23 699.56L1420.15 690.29" stroke="hsla(228.5, 77.2%, 51.5%, 0.08)" stroke-width="1.5"></path><path d="M1253.23 699.56L1136.85 522.35" stroke="hsla(228.5, 77.2%, 51.5%, 0.08)" stroke-width="1.5"></path><path d="M1253.23 699.56L1425.18 546.43" stroke="hsla(228.5, 77.2%, 51.5%, 0.08)" stroke-width="1.5"></path><path d="M1445.39 -87.62L1445.39 -87.62" stroke="hsla(228.5, 77.2%, 51.5%, 0.08)" stroke-width="1.5"></path><path d="M1445.39 -87.62L1569.08 -55.01" stroke="hsla(228.5, 77.2%, 51.5%, 0.08)" stroke-width="1.5"></path><path d="M1445.39 -87.62L1444.23 46.38" stroke="hsla(228.5, 77.2%, 51.5%, 0.08)" stroke-width="1.5"></path><path d="M1445.39 -87.62L1249.25 101.17" stroke="hsla(228.5, 77.2%, 51.5%, 0.08)" stroke-width="1.5"></path><path d="M1445.39 -87.62L1407.74 256.42" stroke="hsla(228.5, 77.2%, 51.5%, 0.08)" stroke-width="1.5"></path><path d="M1444.23 46.38L1444.23 46.38" stroke="hsla(228.5, 77.2%, 51.5%, 0.08)" stroke-width="1.5"></path><path d="M1444.23 46.38L1569.08 -55.01" stroke="hsla(228.5, 77.2%, 51.5%, 0.08)" stroke-width="1.5"></path><path d="M1407.74 256.42L1407.74 256.42" stroke="hsla(228.5, 77.2%, 51.5%, 0.08)" stroke-width="1.5"></path><path d="M1407.74 256.42L1446.04 368.94" stroke="hsla(228.5, 77.2%, 51.5%, 0.08)" stroke-width="1.5"></path><path d="M1407.74 256.42L1610.64 242.26" stroke="hsla(228.5, 77.2%, 51.5%, 0.08)" stroke-width="1.5"></path><path d="M1446.04 368.94L1446.04 368.94" stroke="hsla(228.5, 77.2%, 51.5%, 0.08)" stroke-width="1.5"></path><path d="M1446.04 368.94L1606.64 392.06" stroke="hsla(228.5, 77.2%, 51.5%, 0.08)" stroke-width="1.5"></path><path d="M1446.04 368.94L1425.18 546.43" stroke="hsla(228.5, 77.2%, 51.5%, 0.08)" stroke-width="1.5"></path><path d="M1446.04 368.94L1283.03 250.75" stroke="hsla(228.5, 77.2%, 51.5%, 0.08)" stroke-width="1.5"></path><path d="M1446.04 368.94L1610.64 242.26" stroke="hsla(228.5, 77.2%, 51.5%, 0.08)" stroke-width="1.5"></path><path d="M1425.18 546.43L1425.18 546.43" stroke="hsla(228.5, 77.2%, 51.5%, 0.08)" stroke-width="1.5"></path><path d="M1425.18 546.43L1420.15 690.29" stroke="hsla(228.5, 77.2%, 51.5%, 0.08)" stroke-width="1.5"></path><path d="M1569.08 -55.01L1569.08 -55.01" stroke="hsla(228.5, 77.2%, 51.5%, 0.08)" stroke-width="1.5"></path><path d="M1569.08 -55.01L1610.64 242.26" stroke="hsla(228.5, 77.2%, 51.5%, 0.08)" stroke-width="1.5"></path><path d="M1569.08 -55.01L1249.49 -104.62" stroke="hsla(228.5, 77.2%, 51.5%, 0.08)" stroke-width="1.5"></path><path d="M1569.08 -55.01L1407.74 256.42" stroke="hsla(228.5, 77.2%, 51.5%, 0.08)" stroke-width="1.5"></path><path d="M1610.64 242.26L1610.64 242.26" stroke="hsla(228.5, 77.2%, 51.5%, 0.08)" stroke-width="1.5"></path><path d="M1610.64 242.26L1606.64 392.06" stroke="hsla(228.5, 77.2%, 51.5%, 0.08)" stroke-width="1.5"></path><path d="M1606.64 392.06L1606.64 392.06" stroke="hsla(228.5, 77.2%, 51.5%, 0.08)" stroke-width="1.5"></path><path d="M1606.64 392.06L1425.18 546.43" stroke="hsla(228.5, 77.2%, 51.5%, 0.08)" stroke-width="1.5"></path><path d="M1606.64 392.06L1407.74 256.42" stroke="hsla(228.5, 77.2%, 51.5%, 0.08)" stroke-width="1.5"></path><circle r="25" cx="-45.13" cy="692.79" fill="url(&quot;#SvgjsRadialGradient1021&quot;)"></circle><circle r="25" cx="543.93" cy="662.84" fill="url(&quot;#SvgjsRadialGradient1021&quot;)"></circle><circle r="25" cx="649.14" cy="685.16" fill="url(&quot;#SvgjsRadialGradient1021&quot;)"></circle><circle r="25" cx="856.97" cy="362.03" fill="url(&quot;#SvgjsRadialGradient1021&quot;)"></circle><circle r="25" cx="791.68" cy="491.03" fill="url(&quot;#SvgjsRadialGradient1021&quot;)"></circle><circle r="25" cx="1249.49" cy="-104.62" fill="url(&quot;#SvgjsRadialGradient1021&quot;)"></circle><circle r="25" cx="1266.92" cy="531.92" fill="url(&quot;#SvgjsRadialGradient1021&quot;)"></circle><circle r="25" cx="1420.15" cy="690.29" fill="url(&quot;#SvgjsRadialGradient1021&quot;)"></circle><circle r="25" cx="1580.1" cy="532.06" fill="url(&quot;#SvgjsRadialGradient1021&quot;)"></circle><circle r="25" cx="1549.13" cy="671.92" fill="url(&quot;#SvgjsRadialGradient1021&quot;)"></circle><circle r="5" cx="-104.53" cy="499.31" fill="rgba(246, 247, 252, 0.54)"></circle><circle r="5" cx="89.97" cy="490.27" fill="rgba(246, 247, 252, 0.54)"></circle><circle r="5" cx="106.09" cy="699.46" fill="rgba(246, 247, 252, 0.54)"></circle><circle r="5" cx="193.38" cy="496.67" fill="rgba(246, 247, 252, 0.54)"></circle><circle r="5" cx="347.84" cy="560.63" fill="rgba(246, 247, 252, 0.54)"></circle><circle r="5" cx="389.97" cy="697.98" fill="rgba(246, 247, 252, 0.54)"></circle><circle r="5" cx="529.99" cy="507.96" fill="rgba(246, 247, 252, 0.54)"></circle><circle r="5" cx="705.76" cy="554.24" fill="rgba(246, 247, 252, 0.54)"></circle><circle r="5" cx="825.25" cy="654.68" fill="rgba(246, 247, 252, 0.54)"></circle><circle r="5" cx="1010.36" cy="230.6" fill="rgba(246, 247, 252, 0.54)"></circle><circle r="5" cx="970.82" cy="378.01" fill="rgba(246, 247, 252, 0.54)"></circle><circle r="5" cx="963.26" cy="539.48" fill="rgba(246, 247, 252, 0.54)"></circle><circle r="5" cx="1005.39" cy="650.99" fill="rgba(246, 247, 252, 0.54)"></circle><circle r="5" cx="1125" cy="216.35" fill="rgba(246, 247, 252, 0.54)"></circle><circle r="5" cx="1124.6" cy="344.37" fill="rgba(246, 247, 252, 0.54)"></circle><circle r="5" cx="1136.85" cy="522.35" fill="rgba(246, 247, 252, 0.54)"></circle><circle r="5" cx="1157.05" cy="653.71" fill="rgba(246, 247, 252, 0.54)"></circle><circle r="5" cx="1249.25" cy="101.17" fill="rgba(246, 247, 252, 0.54)"></circle><circle r="5" cx="1283.03" cy="250.75" fill="rgba(246, 247, 252, 0.54)"></circle><circle r="5" cx="1300.52" cy="371.64" fill="rgba(246, 247, 252, 0.54)"></circle><circle r="5" cx="1253.23" cy="699.56" fill="rgba(246, 247, 252, 0.54)"></circle><circle r="5" cx="1445.39" cy="-87.62" fill="rgba(246, 247, 252, 0.54)"></circle><circle r="5" cx="1444.23" cy="46.38" fill="rgba(246, 247, 252, 0.54)"></circle><circle r="5" cx="1407.74" cy="256.42" fill="rgba(246, 247, 252, 0.54)"></circle><circle r="5" cx="1446.04" cy="368.94" fill="rgba(246, 247, 252, 0.54)"></circle><circle r="5" cx="1425.18" cy="546.43" fill="rgba(246, 247, 252, 0.54)"></circle><circle r="5" cx="1569.08" cy="-55.01" fill="rgba(246, 247, 252, 0.54)"></circle><circle r="5" cx="1610.64" cy="242.26" fill="rgba(246, 247, 252, 0.54)"></circle><circle r="5" cx="1606.64" cy="392.06" fill="rgba(246, 247, 252, 0.54)"></circle></g><defs><mask id="SvgjsMask1020"><rect width="1440" height="560" fill="#ffffff"></rect></mask><radialGradient id="SvgjsRadialGradient1021"><stop stop-color="#ffffff" offset="0.1"></stop><stop stop-color="rgba(23, 53, 179, 0.08)" offset="0.2"></stop><stop stop-color="rgba(23, 53, 179, 0)" offset="1"></stop></radialGradient></defs></svg>