<svg xmlns="http://www.w3.org/2000/svg" version="1.1" xmlns:xlink="http://www.w3.org/1999/xlink" xmlns:svgjs="http://svgjs.dev/svgjs" width="1440" height="250" preserveAspectRatio="none" viewBox="0 0 1440 250"><g mask="url(&quot;#SvgjsMask1003&quot;)" fill="none"><path d="M34 250L284 0L606.5 0L356.5 250z" fill="url(&quot;#SvgjsLinearGradient1004&quot;)"></path><path d="M244.60000000000002 250L494.6 0L604.1 0L354.1 250z" fill="url(&quot;#SvgjsLinearGradient1004&quot;)"></path><path d="M508.20000000000005 250L758.2 0L795.7 0L545.7 250z" fill="url(&quot;#SvgjsLinearGradient1004&quot;)"></path><path d="M749.8000000000001 250L999.8000000000001 0L1191.8000000000002 0L941.8000000000001 250z" fill="url(&quot;#SvgjsLinearGradient1004&quot;)"></path><path d="M1414 250L1164 0L876 0L1126 250z" fill="url(&quot;#SvgjsLinearGradient1005&quot;)"></path><path d="M1162.4 250L912.4000000000001 0L555.4000000000001 0L805.4000000000001 250z" fill="url(&quot;#SvgjsLinearGradient1005&quot;)"></path><path d="M936.8 250L686.8 0L421.29999999999995 0L671.3 250z" fill="url(&quot;#SvgjsLinearGradient1005&quot;)"></path><path d="M698.1999999999999 250L448.19999999999993 0L352.19999999999993 0L602.1999999999999 250z" fill="url(&quot;#SvgjsLinearGradient1005&quot;)"></path><path d="M1283.7708089058222 250L1440 93.77080890582221L1440 250z" fill="url(&quot;#SvgjsLinearGradient1004&quot;)"></path><path d="M0 250L156.2291910941778 250L 0 93.77080890582221z" fill="url(&quot;#SvgjsLinearGradient1005&quot;)"></path></g><defs><mask id="SvgjsMask1003"><rect width="1440" height="250" fill="#ffffff"></rect></mask><linearGradient x1="0%" y1="100%" x2="100%" y2="0%" id="SvgjsLinearGradient1004"><stop stop-color="rgba(15, 70, 185, 0.2)" offset="0"></stop><stop stop-opacity="0" stop-color="rgba(15, 70, 185, 0.2)" offset="0.66"></stop></linearGradient><linearGradient x1="100%" y1="100%" x2="0%" y2="0%" id="SvgjsLinearGradient1005"><stop stop-color="rgba(15, 70, 185, 0.2)" offset="0"></stop><stop stop-opacity="0" stop-color="rgba(15, 70, 185, 0.2)" offset="0.66"></stop></linearGradient></defs></svg>